<?xml version="1.0" standalone="no"?>
<!DOCTYPE svg PUBLIC "-//W3C//DTD SVG 20010904//EN"
 "http://www.w3.org/TR/2001/REC-SVG-20010904/DTD/svg10.dtd">
<svg version="1.0" xmlns="http://www.w3.org/2000/svg"
 width="225.000000pt" height="225.000000pt" viewBox="0 0 225.000000 225.000000"
 preserveAspectRatio="xMidYMid meet">

<g transform="translate(0.000000,225.000000) scale(0.100000,-0.100000)"
fill="#000000" stroke="none">
<path d="M357 1951 l-58 -6 -74 -89 c-41 -49 -71 -94 -68 -100 55 -95 178
-275 183 -269 25 30 368 442 379 456 13 16 4 17 -145 15 -88 -1 -185 -4 -217
-7z"/>
<path d="M642 1680 c-128 -154 -235 -286 -237 -293 -4 -10 168 -294 194 -320
10 -10 507 578 505 597 -2 24 -199 296 -214 296 -8 0 -120 -126 -248 -280z"/>
<path d="M922 1265 c-241 -290 -252 -306 -240 -328 27 -50 213 -337 218 -337
3 0 44 46 92 103 47 56 162 194 256 306 94 112 169 209 165 215 -8 15 -224
329 -232 338 -4 5 -121 -129 -259 -297z"/>
<path d="M1221 808 l-259 -312 46 -70 c25 -39 62 -97 82 -129 l37 -58 232 359
c127 198 231 363 231 366 0 9 -99 156 -105 156 -3 0 -122 -140 -264 -312z"/>
</g>
</svg>
