<?xml version="1.0" standalone="no"?>
<!DOCTYPE svg PUBLIC "-//W3C//DTD SVG 20010904//EN"
 "http://www.w3.org/TR/2001/REC-SVG-20010904/DTD/svg10.dtd">
<svg version="1.0" xmlns="http://www.w3.org/2000/svg"
 width="400.000000pt" height="400.000000pt" viewBox="0 0 400.000000 400.000000"
 preserveAspectRatio="xMidYMid meet">

<g transform="translate(0.000000,400.000000) scale(0.100000,-0.100000)"
fill="#000000" stroke="none">
<path d="M0 2000 l0 -2000 2000 0 2000 0 0 2000 0 2000 -2000 0 -2000 0 0
-2000z m2408 1331 c-5 -12 -402 -490 -408 -490 -3 0 -43 56 -90 125 -47 69
-122 177 -167 242 -46 64 -83 120 -83 124 0 5 169 8 376 8 207 0 374 -4 372
-9z m1028 -23 c17 -18 36 -40 42 -49 13 -18 40 16 -707 -877 -134 -161 -247
-292 -250 -292 -3 0 -29 35 -58 78 -28 42 -78 115 -110 162 -199 284 -243 349
-243 354 0 4 24 35 53 70 28 34 119 143 202 242 82 98 180 216 218 262 l68 82
378 0 377 0 30 -32z m225 -270 l19 -26 -118 -184 c-176 -273 -320 -497 -386
-601 -232 -364 -341 -534 -351 -545 -13 -15 -10 -18 -133 158 l-64 90 44 53
c58 70 241 290 293 352 24 28 176 211 340 408 292 350 298 357 317 340 11 -10
29 -30 39 -45z m-1628 -2593 c-3 -9 -8 -14 -10 -11 -3 3 -2 9 2 15 9 16 15 13
8 -4z"/>
</g>
</svg>
